# xmcd
#
# Track frame offsets:
#	150
#	9730
#	23249
#	37956
#	51607
#	65129
#	79126
#	93313
#	105173
#	117316
#	129522
#	146581
#	164296
#	175143
#	189439
#
# Disc length: 2698 seconds
#
# Revision: 1
# Processed by: cddbd v1.5.2PL0 Copyright (c) Steve Scherf et al.
# Submitted via: audiograbber 1.83.01
#
DISCID=c80a880f
DTITLE=Chartbusters - CBA9309
DYEAR=1900
DGENRE=
TTITLE0=Williams, Hank - Ready To Go Home
TTITLE1=Williams, Hank - I Saw The Light
TTITLE2=Williams, Hank (Luke The Drifter) - I Dreamed About Mama Last Night
TTITLE3=Williams, Hank (Luke The Drifter) - Please Make Up Your Mind
TTITLE4=Williams, Hank and Aubrey - Dear Brother
TTITLE5=Williams, Hank - How Can You Refuse Him Now
TTITLE6=Williams, Hank and Aubrey - Jesus Remembered Me
TTITLE7=Williams, Hank - House Of Gold
TTITLE8=Williams, Hank - Thank God
TTITLE9=Williams, Hank - The Prodigal Son
TTITLE10=Williams, Hank - Thy Burdens Are Greater Than Mine
TTITLE11=Williams, Hank - Tramp On The Street
TTITLE12=Williams, Hank - I'll Have A New Body
TTITLE13=Williams, Hank - Calling You
TTITLE14=Williams, Hank - The Angel Of Death
EXTD=
EXTT0=
EXTT1=
EXTT2=
EXTT3=
EXTT4=
EXTT5=
EXTT6=
EXTT7=
EXTT8=
EXTT9=
EXTT10=
EXTT11=
EXTT12=
EXTT13=
EXTT14=
PLAYORDER=
